<?xml version="1.0" encoding="UTF-8" standalone="no"?>
<!-- Generator: Adobe Illustrator 24.1.1, SVG Export Plug-In . SVG Version: 6.00 Build 0)  -->

<svg
   version="1.1"
   id="Layer_1"
   x="0px"
   y="0px"
   viewBox="0 0 510 200"
   xml:space="preserve"
   sodipodi:docname="expand.svg"
   width="510"
   height="200"
   inkscape:version="1.4 (86a8ad7, 2024-10-11)"
   xmlns:inkscape="http://www.inkscape.org/namespaces/inkscape"
   xmlns:sodipodi="http://sodipodi.sourceforge.net/DTD/sodipodi-0.dtd"
   xmlns="http://www.w3.org/2000/svg"
   xmlns:svg="http://www.w3.org/2000/svg"><defs
   id="defs1" /><sodipodi:namedview
   id="namedview1"
   pagecolor="#ffffff"
   bordercolor="#000000"
   borderopacity="0.25"
   inkscape:showpageshadow="2"
   inkscape:pageopacity="0.0"
   inkscape:pagecheckerboard="0"
   inkscape:deskcolor="#d1d1d1"
   inkscape:zoom="1.6699219"
   inkscape:cx="258.99415"
   inkscape:cy="167.97193"
   inkscape:window-width="1920"
   inkscape:window-height="1057"
   inkscape:window-x="-8"
   inkscape:window-y="-8"
   inkscape:window-maximized="1"
   inkscape:current-layer="Layer_1" />
<style
   type="text/css"
   id="style1">
	.st0{fill:#333333;}
</style>
<g
   id="XMLID_2_"
   transform="matrix(0.50840065,0.50840065,-0.50840065,0.50840065,255.40367,-160.7308)"
   style="opacity:1;fill:#00850a;fill-opacity:1">
	<path
   id="XMLID_6_"
   class="st0"
   d="m 250.9,309.1 c 0,2.8 -0.9,5.6 -3.7,7.4 l -109.9,110.8 48.4,48.4 c 4.7,4.7 6.5,9.3 6.5,14.9 0,5.6 -1.9,11.2 -6.5,14.9 -4.7,4.7 -9.3,6.5 -14.9,6.5 H 21.9 C 16.3,512 10.7,510.1 7,505.5 2.3,500.8 0.5,496.2 0.5,490.6 v -149 c 0,-5.6 1.9,-11.2 6.5,-14.9 4.7,-4.7 9.3,-6.5 14.9,-6.5 5.6,0 11.2,1.9 14.9,6.5 L 85.2,375.1 196,264.4 c 1.9,-1.9 4.7,-3.7 7.4,-3.7 2.8,0 5.6,0.9 7.4,3.7 l 38.2,38.2 c 0.9,0.9 1.9,3.7 1.9,6.5 z M 511.5,21.4 v 148.9 c 0,5.6 -1.9,11.2 -6.5,14.9 -4.7,4.7 -9.3,6.5 -14.9,6.5 -5.6,0 -11.2,-1.9 -14.9,-6.5 L 426.8,136.8 317,248.6 c -1.9,1.9 -4.7,3.7 -7.4,3.7 -2.7,0 -5.6,-0.9 -7.4,-3.7 L 264,210.4 c -1.9,-1.9 -3.7,-4.7 -3.7,-7.4 0,-2.7 0.9,-5.6 3.7,-7.4 L 374.7,84.7 326.3,36.3 c -4.7,-4.7 -6.5,-9.3 -6.5,-14.9 0,-5.6 1.9,-11.2 6.5,-14.9 C 331,1.8 335.6,0 341.2,0 h 148.9 c 5.6,0 11.2,1.9 14.9,6.5 4.7,3.7 6.5,9.3 6.5,14.9 z"
   style="fill:#00850a;fill-opacity:1" />
</g>
</svg>
