<?xml version="1.0" encoding="UTF-8" standalone="no"?>
<svg
   version="1.0"
   width="300.000000pt"
   height="300.000000pt"
   viewBox="0 0 300.000000 300.000000"
   preserveAspectRatio="xMidYMid meet"
   id="svg1"
   sodipodi:docname="fire.svg"
   inkscape:version="1.4 (86a8ad7, 2024-10-11)"
   xmlns:inkscape="http://www.inkscape.org/namespaces/inkscape"
   xmlns:sodipodi="http://sodipodi.sourceforge.net/DTD/sodipodi-0.dtd"
   xmlns="http://www.w3.org/2000/svg"
   xmlns:svg="http://www.w3.org/2000/svg">
  <defs
     id="defs1" />
  <sodipodi:namedview
     id="namedview1"
     pagecolor="#ffffff"
     bordercolor="#000000"
     borderopacity="0.25"
     inkscape:showpageshadow="2"
     inkscape:pageopacity="0.0"
     inkscape:pagecheckerboard="0"
     inkscape:deskcolor="#d1d1d1"
     inkscape:document-units="pt"
     inkscape:zoom="1.06875"
     inkscape:cx="136.14035"
     inkscape:cy="135.20468"
     inkscape:window-width="1920"
     inkscape:window-height="1057"
     inkscape:window-x="-8"
     inkscape:window-y="-8"
     inkscape:window-maximized="1"
     inkscape:current-layer="svg1" />
  <metadata
     id="metadata1">
Created by potrace 1.10, written by Peter Selinger 2001-2011
</metadata>
  <g
     transform="matrix(0.10115313,0,0,-0.10115313,-17.985148,301.13476)"
     fill="#000000"
     stroke="none"
     id="g1">
    <path
       d="m 1837.2426,2958.9441 c -363.7623,-77.9491 -626.0671,-424.3895 -602.5586,-796.8127 8.661,-131.1524 28.4575,-196.7287 121.254,-399.6438 79.1865,-173.22 110.1186,-275.9148 110.1186,-373.6605 0,-115.0677 -45.7796,-218.9998 -120.0168,-267.254 -43.305,-28.4576 -174.4575,-32.1694 -225.1862,-4.9491 -55.678,28.4576 -133.627,126.2033 -163.32188,202.915 -47.01691,126.2033 -45.77962,226.4236 7.42371,421.9149 4.94915,17.3219 -14.84744,-4.9492 -43.30504,-48.2543 C 661.82017,1293.5559 597.48125,1020.1157 696.46419,733.0651 797.92172,439.82808 1020.6333,199.79444 1299.0228,84.726758 1453.6838,20.387847 1544.0057,5.540403 1756.819,12.964119 c 209.1015,7.423728 303.1353,27.220317 426.864,90.321931 222.7116,112.59311 409.5419,361.28777 483.7791,642.15185 35.8814,141.0507 35.8814,384.7962 -1.2373,562.9655 -72.9999,355.1014 -211.576,617.4062 -470.169,890.8466 -84.1355,90.3219 -97.7457,100.2202 -90.3219,68.0508 24.7457,-96.5085 -3.7118,-168.271 -80.4237,-200.4405 -39.5931,-16.0848 -48.2541,-16.0848 -85.3727,1.2372 -50.7288,23.5085 -105.1694,106.4067 -142.2881,216.5252 -22.2711,65.5762 -27.2203,107.644 -27.2203,211.5761 1.2374,179.4065 40.8305,293.2369 149.7118,430.5758 48.2541,59.3898 47.0169,60.627 -82.8983,32.1695 z"
       id="path1"
       sodipodi:nodetypes="cccsccccccccccccccccccc"
       style="fill:#e14212;fill-opacity:1;stroke-width:1.23729" />
  </g>
</svg>
